<svg width="51" height="35" viewBox="0 0 51 35" fill="none" xmlns="http://www.w3.org/2000/svg">
<path d="M36.975 17.5C40.494 17.5 43.3245 14.7 43.3245 11.25C43.3245 7.8 40.494 5 36.975 5C35.2842 5 33.6627 5.65848 32.4672 6.83058C31.2716 8.00268 30.6 9.5924 30.6 11.25C30.6 12.9076 31.2716 14.4973 32.4672 15.6694C33.6627 16.8415 35.2842 17.5 36.975 17.5ZM17.85 15C22.083 15 25.4745 11.65 25.4745 7.5C25.4745 3.35 22.083 0 17.85 0C13.617 0 10.2 3.35 10.2 7.5C10.2 11.65 13.617 15 17.85 15ZM36.975 22.5C32.3085 22.5 22.95 24.8 22.95 29.375V35H51V29.375C51 24.8 41.6415 22.5 36.975 22.5ZM17.85 20C11.9085 20 0 22.925 0 28.75V35H17.85V29.375C17.85 27.25 18.6915 23.525 23.8935 20.7C21.675 20.25 19.533 20 17.85 20Z" fill="#D32027"/>
</svg>
