<svg width="54" height="52" viewBox="0 0 54 52" fill="none" xmlns="http://www.w3.org/2000/svg">
<path fill-rule="evenodd" clip-rule="evenodd" d="M26.6422 0.108802C26.8617 -0.0362673 27.1392 -0.0362673 27.3591 0.108802L53.6745 17.4845C53.935 17.6568 54.0574 17.994 53.9741 18.3104C53.8907 18.6263 53.6218 18.8442 53.3156 18.8442H50.188L47.4429 22.5573V42.3618L50.188 46.0749H53.2496C53.6283 46.0749 53.9345 46.4039 53.9345 46.8093V51.2651C53.9345 51.6704 53.6283 52 53.2496 52H0.750287C0.372063 52 0.0658989 51.6704 0.0658989 51.2651V46.8093C0.0658989 46.4039 0.372063 46.0749 0.750287 46.0749H3.81242L6.54102 42.384V22.5355L3.81242 18.8442H0.684812C0.378647 18.8442 0.109706 18.6263 0.0258662 18.3104C-0.0575041 17.994 0.0654305 17.6568 0.325905 17.4845L26.6422 0.108802ZM52.5657 47.5426H1.43496V50.5304H52.5657V47.5426ZM46.426 43.3493H40.6236L38.6091 46.0743H48.4411L46.426 43.3493ZM13.3787 43.3493H7.57623L5.56121 46.0743H15.3932L13.3787 43.3493ZM29.903 43.3493H24.1005L22.0855 46.0743H31.9184L29.903 43.3493ZM20.3385 18.8437H17.1412L14.3961 22.5568V42.3613L17.1412 46.0744H20.3385L23.0672 42.3836V22.5351L20.3385 18.8437ZM36.8628 18.8437H33.6651L30.9204 22.5568V42.3613L33.6651 46.0744H36.8628L39.591 42.3836V22.5351L36.8628 18.8437ZM46.0759 23.0391H40.9597V41.8795H46.0759V23.0391ZM29.5516 23.0391H24.4363V41.8795H29.5516V23.0391ZM13.0273 23.0391H7.91204V41.8795H13.0273V23.0391ZM15.3937 18.8437H5.5617L7.57671 21.5701H13.3791L15.3937 18.8437ZM48.4423 18.8437H38.6103L40.6248 21.5701H46.4272L48.4423 18.8437ZM31.918 18.8437H22.085L24.1 21.5701H29.9025L31.918 18.8437ZM27.0011 1.59611L3.10452 17.375H50.8988L27.0011 1.59611ZM27.0011 5.85217C29.3354 5.85217 31.2332 7.88969 31.2332 10.3938C31.2332 12.8979 29.3355 14.9355 27.0011 14.9355C24.6676 14.9355 22.7699 12.8979 22.7699 10.3938C22.7699 7.88969 24.6676 5.85217 27.0011 5.85217ZM27.0011 7.3215C25.4227 7.3215 24.1383 8.69985 24.1383 10.3937C24.1383 12.0875 25.4227 13.4664 27.0011 13.4664C28.5804 13.4664 29.8649 12.0875 29.8649 10.3937C29.8649 8.69985 28.5804 7.3215 27.0011 7.3215Z" fill="#17375E"/>
</svg>
