<svg width="37" height="34" viewBox="0 0 37 34" fill="none" xmlns="http://www.w3.org/2000/svg">
<path d="M32.8889 3.4H30.8333V0H26.7222V3.4H10.2778V0H6.16667V3.4H4.11111C1.82944 3.4 0.0205555 4.93 0.0205555 6.8L0 30.6C0 31.5017 0.433133 32.3665 1.20412 33.0042C1.9751 33.6418 3.02078 34 4.11111 34H32.8889C35.15 34 37 32.47 37 30.6V6.8C37 4.93 35.15 3.4 32.8889 3.4ZM32.8889 30.6H4.11111V13.6H32.8889V30.6ZM32.8889 10.2H4.11111V6.8H32.8889V10.2ZM12.3333 20.4H8.22222V17H12.3333V20.4ZM20.5556 20.4H16.4444V17H20.5556V20.4ZM28.7778 20.4H24.6667V17H28.7778V20.4ZM12.3333 27.2H8.22222V23.8H12.3333V27.2ZM20.5556 27.2H16.4444V23.8H20.5556V27.2ZM28.7778 27.2H24.6667V23.8H28.7778V27.2Z" fill="#17375E"/>
</svg>
